<?xml version="1.0" encoding="utf-8"?>
<!-- Generator: Adobe Illustrator 19.2.1, SVG Export Plug-In . SVG Version: 6.00 Build 0)  -->
<svg version="1.1" id="Layer_1" xmlns="http://www.w3.org/2000/svg" xmlns:xlink="http://www.w3.org/1999/xlink" x="0px" y="0px"
	 viewBox="0 0 612 792" style="enable-background:new 0 0 612 792;" xml:space="preserve">
<path d="M443.2,458.7l-122.6,46.6c-3.4,1.3-7.2,1.3-10.7,0l-122.6-46.6c-4.3-1.6-4.3-7.7,0-9.3L310,402.7c3.4-1.3,7.2-1.3,10.7,0
	l122.6,46.6C447.5,451,447.5,457,443.2,458.7z"/>
<path d="M321.2,515.5c-3.8,1.4-8,1.4-11.7,0l-66-25.1v58.9c0,0,16.7,25.7,71.9,25.7s71.9-25.7,71.9-25.7v-58.9L321.2,515.5z"/>
<g>
	<rect x="210" y="466.9" width="5.3" height="42.5"/>
	<circle cx="212.4" cy="504.5" r="6.9"/>
	<path d="M209.7,509.4l-7.5,30.8c-0.1,0.4,0.4,0.7,0.7,0.5l6.4-5.1c0.2-0.2,0.5-0.1,0.6,0.2l2.6,6.2c0.1,0.3,0.5,0.3,0.6,0l3.4-6.3
		c0.1-0.2,0.4-0.3,0.6-0.1l5.2,5.7c0.3,0.3,0.9,0.1,0.8-0.4l-6.8-31.5H209.7z"/>
</g>
</svg>
