<?xml version="1.0" encoding="UTF-8" standalone="no"?>
<svg width="766px" height="704px" viewBox="0 0 766 704" version="1.1" xmlns="http://www.w3.org/2000/svg" xmlns:xlink="http://www.w3.org/1999/xlink" xmlns:sketch="http://www.bohemiancoding.com/sketch/ns">
    <!-- Generator: Sketch 3.4 (15575) - http://www.bohemiancoding.com/sketch -->
    <title>Shape</title>
    <desc>Created with Sketch.</desc>
    <defs></defs>
    <g id="Page-1" stroke="none" stroke-width="1" fill="none" fill-rule="evenodd" sketch:type="MSPage">
        <path d="M760.688,388.219 L710.876,338.563 C704.438,332.034 693.938,331.969 687.501,338.563 L582.5,443.5 L462.375,563.875 L369.344,470.75 C362.813,464.188 352.313,464.188 345.844,470.75 L296.125,520.438 C289.594,527 289.594,537.5 296.125,544 L400.906,648.875 L418.875,666.75 L450.563,698.562 C457.125,705.124 467.751,705.124 474.125,698.562 L523.75,648.874 L760.625,411.78 C767.25,405.312 767.25,394.812 760.688,388.219 L760.688,388.219 L760.688,388.219 L760.688,388.219 Z M228.469,452.812 L278.156,403 C320.625,360.625 394.5,360.562 436.937,403.062 L462.249,428.374 L576,320 L576,0 L0,0 L0,704 L320,704 L228.469,611.875 C184.688,567.938 184.688,496.625 228.469,452.812 L228.469,452.812 L228.469,452.812 L228.469,452.812 Z M192,64 L512,64 L512,128 L192,128 L192,64 L192,64 L192,64 L192,64 Z M192,192 L512,192 L512,256 L192,256 L192,192 L192,192 L192,192 L192,192 Z M128,384 L64,384 L64,320 L128,320 L128,384 L128,384 L128,384 L128,384 Z M128,256 L64,256 L64,192 L128,192 L128,256 L128,256 L128,256 L128,256 Z M128,128 L64,128 L64,64 L128,64 L128,128 L128,128 L128,128 L128,128 Z M192,320 L256,320 L256,384 L192,384 L192,320 L192,320 L192,320 L192,320 Z" id="Shape" fill="#FFFFFF" sketch:type="MSShapeGroup"></path>
    </g>
</svg>