<?xml version="1.0" encoding="utf-8"?>
<!-- Generator: Adobe Illustrator 19.2.1, SVG Export Plug-In . SVG Version: 6.00 Build 0)  -->
<svg version="1.1" id="Layer_1" xmlns="http://www.w3.org/2000/svg" xmlns:xlink="http://www.w3.org/1999/xlink" x="0px" y="0px"
	 viewBox="0 0 612 792" style="enable-background:new 0 0 612 792;" xml:space="preserve">
<style type="text/css">
	.st0{fill:#231F20;}
</style>
<path class="st0" d="M261.4,471.5c-27.9,27.9-42,59.1-31.4,69.7c10.6,10.6,41.8-3.5,69.7-31.4c27.9-27.9,42-59.1,31.4-69.7
	C320.5,429.5,289.3,443.6,261.4,471.5z M292.2,501.5c-22.9,22.9-47,35.4-52.9,30.4c-6.7-5.7,7.6-30.2,30.5-53.1
	c22.9-22.9,45.7-35.5,52.4-29.8C328.1,454.1,315.1,478.6,292.2,501.5z"/>
<path class="st0" d="M233.8,543.7l120.6,43c13.8,4.9,27.1-8.4,22.2-22.2L333,442l-7.1,16.9L364,564.8c2.1,5.8-3.5,11.4-9.3,9.3
	l-106.5-38.9L233.8,543.7z"/>
<ellipse transform="matrix(0.7071 -0.7071 0.7071 0.7071 -309.3366 296.9329)" class="st0" cx="203.8" cy="521.9" rx="8" ry="8"/>
<ellipse transform="matrix(0.7071 -0.7071 0.7071 0.7071 -276.9169 254.7917)" class="st0" cx="169.1" cy="461.7" rx="8" ry="8"/>
<ellipse transform="matrix(0.7071 -0.7071 0.7071 0.7071 -199.2153 333.1972)" class="st0" cx="302.6" cy="407.1" rx="8" ry="8"/>
<path class="st0" d="M210.6,495.2l-1.4-6.3c-0.4-1.9-2.4-3.1-4.3-2.6l-32.6,8.3c-1.9,0.5-3.1,2.5-2.5,4.4l2,7.1
	c0.5,1.9,2.5,3,4.3,2.4l32-9.2C209.9,498.8,211,497,210.6,495.2z"/>
<path class="st0" d="M243.2,471.1l4.9-4.9c1.4-1.4,1.4-3.6,0-5l-47.8-47.8c-1.4-1.4-3.6-1.4-5,0l-4.9,4.9c-1.4,1.4-1.4,3.6,0,5
	l47.8,47.8C239.6,472.5,241.9,472.5,243.2,471.1z"/>
<path class="st0" d="M264.3,430.4l5.7-3.3c1.7-1,2.3-3.1,1.3-4.8l-11.5-19.9c-0.5-0.9-0.6-2.1-0.2-3l3.9-9.9c0.4-1,0.3-2.1-0.2-3.1
	l-9.1-15.3c-1-1.6-3-2.2-4.7-1.3l-5.9,3.2c-1.8,0.9-2.4,3.2-1.4,4.9l7.8,13.3c0.5,0.9,0.6,2,0.3,3l-3.8,10.3c-0.4,1-0.3,2.1,0.3,3
	l12.7,21.6C260.5,430.7,262.6,431.3,264.3,430.4z"/>
</svg>
