<?xml version="1.0" ?><!DOCTYPE svg  PUBLIC '-//W3C//DTD SVG 1.1//EN'  'http://www.w3.org/Graphics/SVG/1.1/DTD/svg11.dtd'><svg enable-background="new 0 0 200 200" height="200px" id="Layer_1" version="1.1" viewBox="0 0 200 200" width="200px" xml:space="preserve" xmlns="http://www.w3.org/2000/svg" xmlns:xlink="http://www.w3.org/1999/xlink"><g><path d="M158.506,83.817c-22.915,0-41.493,18.577-41.493,41.494c0,22.916,18.578,41.493,41.493,41.493   c22.918,0,41.494-18.577,41.494-41.493C200,102.395,181.424,83.817,158.506,83.817z M183.894,114.829l-28.823,29.105   c-1.577,1.592-4.144,1.602-5.733,0.022l-16.186-16.093c-2.146-2.132-2.156-5.601-0.022-7.746c2.141-2.154,5.609-2.164,7.756-0.031   l11.27,11.204l23.946-24.181c2.128-2.149,5.597-2.166,7.746-0.037C186.006,109.211,186.021,112.68,183.894,114.829z" fill="#333333"/><path d="M9.08,35.286l71.329,57.777c1.425,1.153,3.734,1.153,5.159,0l71.329-57.777   c1.425-1.154,1.093-2.091-0.74-2.091H9.819C7.986,33.195,7.655,34.132,9.08,35.286z" fill="#333333"/><path d="M2.581,39.799C1.156,38.645,0,39.195,0,41.027v86.514c0,1.832,1.161,2.39,2.592,1.245l55.266-44.213   L2.581,39.799z" fill="#333333"/><path d="M158.506,76.349c2.54,0,5.033,0.194,7.469,0.569V41.027c0-1.832-1.153-2.383-2.578-1.229l-55.281,44.774   l12.389,9.909C129.488,83.429,143.185,76.349,158.506,76.349z" fill="#333333"/><path d="M115.881,101.264l-14.273-11.42l-16.04,12.996c-1.425,1.154-3.734,1.154-5.159,0L64.367,89.844   L9.142,134.026c-1.431,1.146-1.105,2.073,0.728,2.073h100.887c-0.784-3.474-1.212-7.081-1.212-10.788   C109.544,116.575,111.854,108.372,115.881,101.264z" fill="#333333"/></g></svg>