<?xml version="1.0" ?><!DOCTYPE svg  PUBLIC '-//W3C//DTD SVG 1.1//EN'  'http://www.w3.org/Graphics/SVG/1.1/DTD/svg11.dtd'><svg enable-background="new 0 0 512 512" height="512px" id="Layer_1" version="1.1" viewBox="0 0 512 512" width="512px" xml:space="preserve" xmlns="http://www.w3.org/2000/svg" xmlns:xlink="http://www.w3.org/1999/xlink"><path clip-rule="evenodd" d="M97,257.201c0-56.49-0.013-112.979,0.011-169.469  c0.005-11.846,5.487-19.639,15.46-22.185c5.889-1.503,11.151,0.198,16.18,3.192c51.49,30.65,102.988,61.287,154.484,91.927  c39.481,23.491,78.94,47.018,118.453,70.455c20.413,12.108,20.637,39.433,0.349,51.505  c-90.114,53.622-180.226,107.249-270.328,160.891c-5.649,3.363-11.343,6.522-18.27,5.161c-8.848-1.739-15.24-8.885-16.16-18.017  c-0.216-2.148-0.173-4.327-0.173-6.492C96.998,368.514,97,312.857,97,257.201z" fill-rule="evenodd"/></svg>